<svg width="31" height="30" viewBox="0 0 31 30" fill="none" xmlns="http://www.w3.org/2000/svg">
<path fill-rule="evenodd" clip-rule="evenodd" d="M24.3751 21.5501C25.1126 20.4251 25.3876 19.8501 25.9501 18.5876C21.8001 17.0126 21.1376 11.1001 25.2376 8.83759C23.9876 7.26259 22.2251 6.3501 20.5626 6.3501C19.3626 6.3501 18.5376 6.66261 17.8001 6.95011C17.1751 7.18761 16.6126 7.40009 15.9126 7.40009C15.1626 7.40009 14.5001 7.16261 13.8001 6.91261C13.0376 6.63761 12.2376 6.3501 11.2376 6.3501C9.37508 6.3501 7.38758 7.4876 6.12508 9.4376C4.35008 12.1876 4.66259 17.3376 7.52509 21.7376C8.55009 23.3126 9.92508 25.0751 11.7126 25.1001C12.4626 25.1126 12.9501 24.8876 13.4876 24.6501C14.1001 24.3751 14.7626 24.0751 15.9251 24.0751C17.0876 24.0626 17.7376 24.3751 18.3501 24.6501C18.8751 24.8876 19.3501 25.1126 20.0876 25.1001C21.9001 25.0751 23.3501 23.1251 24.3751 21.5501Z" fill="white"/>
<path fill-rule="evenodd" clip-rule="evenodd" d="M20.2996 0.100098C20.4996 1.4751 19.9371 2.83761 19.1996 3.78761C18.4121 4.81261 17.0371 5.61259 15.7121 5.56259C15.4746 4.23759 16.0871 2.87509 16.8371 1.96259C17.6746 0.962586 19.0871 0.187598 20.2996 0.100098Z" fill="white"/>
</svg>
