<svg width="31" height="30" viewBox="0 0 31 30" fill="none" xmlns="http://www.w3.org/2000/svg">
<path d="M24.0386 0H6.96136C3.39285 0 0.5 2.89285 0.5 6.46136V23.5386C0.5 27.1072 3.39285 30 6.96136 30H24.0386C27.6072 30 30.5 27.1072 30.5 23.5386V6.46136C30.5 2.89285 27.6072 0 24.0386 0Z" fill="#E14459"/>
<path d="M7.81272 1.96107C7.58652 1.96137 7.36968 2.05115 7.20987 2.21068C7.05006 2.3702 6.96035 2.58643 6.96045 2.81183C6.96065 3.0373 7.0507 3.25346 7.21081 3.41278C7.37091 3.57211 7.58797 3.66155 7.81424 3.66145C8.04051 3.66135 8.25748 3.57171 8.41744 3.41225C8.57741 3.25278 8.66727 3.03654 8.66727 2.81107V2.80956C8.66686 2.58409 8.57662 2.36801 8.41637 2.20883C8.25612 2.04965 8.03899 1.96077 7.81272 1.96107ZM23.0786 1.96107C22.8524 1.96137 22.6356 2.05115 22.4758 2.21068C22.316 2.3702 22.2263 2.58643 22.2264 2.81183C22.2266 3.03737 22.3167 3.25358 22.4769 3.41292C22.637 3.57225 22.8542 3.66165 23.0805 3.66145C23.3068 3.66135 23.5238 3.57171 23.6837 3.41225C23.8437 3.25278 23.9336 3.03654 23.9336 2.81107V2.80956C23.9332 2.58402 23.8429 2.36789 23.6825 2.2087C23.5222 2.0495 23.305 1.96067 23.0786 1.96107Z" fill="#C73148"/>
<path d="M7.77869 2.69408C7.4821 2.70999 7.49687 3.14105 7.49687 3.14105C9.09119 6.24559 12.026 7.76794 15.4109 7.76832C18.7912 7.7634 21.7552 6.224 23.3472 3.124C23.3472 3.124 23.4101 2.54029 22.7889 2.74256C21.1563 5.44862 18.4139 7.04938 15.4128 7.05431C12.4063 7.05506 9.67338 5.47097 8.03778 2.75999C7.93172 2.70885 7.84725 2.69029 7.77869 2.69408ZM18.5666 14.76L17.6597 17.4607L16.7772 14.7619H15.9154L17.3063 18.6884H17.9772L18.8863 16.1092L19.7938 18.6884H20.4704L21.8586 14.7623H21.0185L20.134 17.4611L19.2272 14.7604L18.5666 14.76ZM13.7499 14.7611L11.9904 18.6857H12.8173L13.1571 17.9259L13.1813 17.8687H15.0094L15.3677 18.6857H16.2173L14.4738 14.7842L14.4586 14.7611H13.7499ZM26.4931 14.7611V18.6835H27.2927V14.7615L26.4931 14.7611ZM3.56543 14.7619V18.6895H4.37604V17.0945H6.20558V18.6892H7.01657V14.7623H6.20596V16.3467H4.37641V14.7623L3.56543 14.7619ZM10.7677 14.763V17.0111C10.7677 17.6494 10.4457 17.9903 9.85975 17.9903C9.27111 17.9903 8.94687 17.6399 8.94687 16.9839V14.7653H8.13588V17.0111C8.13588 18.116 8.76088 18.7494 9.84914 18.7494C10.9476 18.7494 11.5776 18.1039 11.5776 16.9785V14.7626L10.7677 14.763ZM22.5124 14.7645V18.6865H25.5287V17.9714H23.3116V16.999H24.7855V16.2831H23.3116V15.4801H25.4518V14.7649L22.5124 14.7645ZM14.0931 15.7547L14.6711 17.0698L14.7105 17.1604H13.4844L13.523 17.0698L14.0931 15.7547Z" fill="white"/>
</svg>
