<svg width="25" height="25" viewBox="0 0 25 25" fill="none" xmlns="http://www.w3.org/2000/svg">
<path d="M9 14.75C9 16.67 10.58 18.25 12.5 18.25C14.42 18.25 16 16.67 16 14.75" stroke="#49D0BF" stroke-width="1.5" stroke-miterlimit="10" stroke-linecap="round" stroke-linejoin="round"/>
<path d="M9.30994 2.5L5.68994 6.13" stroke="#49D0BF" stroke-width="1.5" stroke-miterlimit="10" stroke-linecap="round" stroke-linejoin="round"/>
<path d="M15.6899 2.5L19.3099 6.13" stroke="#49D0BF" stroke-width="1.5" stroke-miterlimit="10" stroke-linecap="round" stroke-linejoin="round"/>
<path d="M2.5 8.3501C2.5 6.5001 3.49 6.3501 4.72 6.3501H20.28C21.51 6.3501 22.5 6.5001 22.5 8.3501C22.5 10.5001 21.51 10.3501 20.28 10.3501H4.72C3.49 10.3501 2.5 10.5001 2.5 8.3501Z" stroke="#49D0BF" stroke-width="1.5"/>
<path d="M4 10.5L5.41 19.14C5.73 21.08 6.5 22.5 9.36 22.5H15.39C18.5 22.5 18.96 21.14 19.32 19.26L21 10.5" stroke="#49D0BF" stroke-width="1.5" stroke-linecap="round"/>
</svg>
