<svg width="30" height="30" viewBox="0 0 30 30" fill="none" xmlns="http://www.w3.org/2000/svg">
<path d="M26.7499 16.1876L23.2749 17.925C23.0374 18.05 22.7499 18 22.5499 17.8125L20.2124 15.475C19.9624 15.225 19.9624 14.8376 20.2124 14.5876L22.5874 12.2125C22.7749 12.025 23.0749 11.975 23.3124 12.1L26.7499 13.825C27.7374 14.3 27.7374 15.7001 26.7499 16.1876Z" fill="white"/>
<path d="M20.3752 10.6126C20.7627 10.8001 20.8377 11.3126 20.5377 11.6126L18.4502 13.7001L17.5627 14.5876C17.3127 14.8376 16.9252 14.8376 16.6752 14.5876L7.75021 5.66259C7.25021 5.16259 7.83771 4.3501 8.47521 4.6626L20.3752 10.6126Z" fill="white"/>
<path d="M2.5 25.1876V4.3501C2.5 3.8001 3.1625 3.51258 3.5625 3.90008L14.525 14.5376C14.7875 14.7876 14.775 15.2001 14.5125 15.4501L3.55 25.6501C3.15 26.0251 2.5 25.7376 2.5 25.1876Z" fill="white"/>
<path d="M20.3377 19.3999L8.60021 25.2749C7.96271 25.5874 7.37521 24.7749 7.87521 24.2749L16.6877 15.4624C16.9377 15.2124 17.3252 15.2124 17.5752 15.4624L20.5127 18.3999C20.8002 18.6999 20.7127 19.2124 20.3377 19.3999Z" fill="white"/>
</svg>
