<svg width="25" height="24" viewBox="0 0 25 24" fill="none" xmlns="http://www.w3.org/2000/svg">
<path d="M17.5 2.43018H7.5C4.5 2.43018 2.5 4.43018 2.5 7.43018V13.4302C2.5 16.4302 4.5 18.4302 7.5 18.4302V20.5602C7.5 21.3602 8.39 21.8402 9.05 21.3902L13.5 18.4302H17.5C20.5 18.4302 22.5 16.4302 22.5 13.4302V7.43018C22.5 4.43018 20.5 2.43018 17.5 2.43018ZM12.5 14.6002C12.08 14.6002 11.75 14.2602 11.75 13.8502C11.75 13.4402 12.08 13.1002 12.5 13.1002C12.92 13.1002 13.25 13.4402 13.25 13.8502C13.25 14.2602 12.92 14.6002 12.5 14.6002ZM13.76 10.4502C13.37 10.7102 13.25 10.8802 13.25 11.1602V11.3702C13.25 11.7802 12.91 12.1202 12.5 12.1202C12.09 12.1202 11.75 11.7802 11.75 11.3702V11.1602C11.75 10.0002 12.6 9.43018 12.92 9.21018C13.29 8.96018 13.41 8.79018 13.41 8.53018C13.41 8.03018 13 7.62018 12.5 7.62018C12 7.62018 11.59 8.03018 11.59 8.53018C11.59 8.94018 11.25 9.28018 10.84 9.28018C10.43 9.28018 10.09 8.94018 10.09 8.53018C10.09 7.20018 11.17 6.12018 12.5 6.12018C13.83 6.12018 14.91 7.20018 14.91 8.53018C14.91 9.67018 14.07 10.2402 13.76 10.4502Z" fill="url(#paint0_linear_1_3104)"/>
<defs>
<linearGradient id="paint0_linear_1_3104" x1="11.8706" y1="2.43018" x2="20.5809" y2="22.6412" gradientUnits="userSpaceOnUse">
<stop stop-color="#73DBCB"/>
<stop offset="1" stop-color="#59A392"/>
</linearGradient>
</defs>
</svg>
