<svg width="16" height="16" viewBox="0 0 16 16" fill="none" xmlns="http://www.w3.org/2000/svg">
<path d="M8.08007 9.01999C8.06674 9.01999 8.04674 9.01999 8.0334 9.01999C8.0134 9.01999 7.98673 9.01999 7.96673 9.01999C6.4534 8.97332 5.32007 7.79332 5.32007 6.33999C5.32007 4.85999 6.52674 3.65332 8.00674 3.65332C9.48674 3.65332 10.6934 4.85999 10.6934 6.33999C10.6867 7.79999 9.54673 8.97332 8.10007 9.01999C8.08673 9.01999 8.08674 9.01999 8.08007 9.01999ZM8.00007 4.64665C7.06674 4.64665 6.3134 5.40665 6.3134 6.33332C6.3134 7.24665 7.02673 7.98665 7.9334 8.01999C7.9534 8.01332 8.02007 8.01332 8.08674 8.01999C8.98007 7.97332 9.68007 7.23999 9.68674 6.33332C9.68674 5.40665 8.9334 4.64665 8.00007 4.64665Z" fill="#A1A3AD"/>
<path d="M7.99997 15.1669C6.20664 15.1669 4.49331 14.5002 3.16664 13.2869C3.04664 13.1802 2.99331 13.0202 3.00664 12.8669C3.09331 12.0735 3.58664 11.3335 4.40664 10.7869C6.39331 9.46687 9.61331 9.46687 11.5933 10.7869C12.4133 11.3402 12.9066 12.0735 12.9933 12.8669C13.0133 13.0269 12.9533 13.1802 12.8333 13.2869C11.5066 14.5002 9.79331 15.1669 7.99997 15.1669ZM4.05331 12.7335C5.15997 13.6602 6.55331 14.1669 7.99997 14.1669C9.44664 14.1669 10.84 13.6602 11.9466 12.7335C11.8266 12.3269 11.5066 11.9335 11.0333 11.6135C9.3933 10.5202 6.61331 10.5202 4.95997 11.6135C4.48664 11.9335 4.17331 12.3269 4.05331 12.7335Z" fill="#A1A3AD"/>
<path d="M7.99992 15.1668C4.04659 15.1668 0.833252 11.9535 0.833252 8.00016C0.833252 4.04683 4.04659 0.833496 7.99992 0.833496C11.9533 0.833496 15.1666 4.04683 15.1666 8.00016C15.1666 11.9535 11.9533 15.1668 7.99992 15.1668ZM7.99992 1.8335C4.59992 1.8335 1.83325 4.60016 1.83325 8.00016C1.83325 11.4002 4.59992 14.1668 7.99992 14.1668C11.3999 14.1668 14.1666 11.4002 14.1666 8.00016C14.1666 4.60016 11.3999 1.8335 7.99992 1.8335Z" fill="#A1A3AD"/>
</svg>
