<svg width="16" height="16" viewBox="0 0 16 16" fill="none" xmlns="http://www.w3.org/2000/svg">
<path d="M10.0002 5.58018V4.94018C10.0002 2.95352 8.62016 2.19352 6.94016 3.24685L4.9935 4.46685C4.78016 4.59352 4.5335 4.66685 4.28683 4.66685H3.3335C2.00016 4.66685 1.3335 5.33352 1.3335 6.66685V9.33352C1.3335 10.6669 2.00016 11.3335 3.3335 11.3335H4.66683" stroke="#1B1C29" stroke-linecap="round" stroke-linejoin="round"/>
<path d="M6.93994 12.7533C8.61994 13.8066 9.99994 13.04 9.99994 11.06V8.6333" stroke="#1B1C29" stroke-linecap="round" stroke-linejoin="round"/>
<path d="M12.54 6.27979C13.14 7.71312 12.96 9.38645 12 10.6665" stroke="#1B1C29" stroke-linecap="round" stroke-linejoin="round"/>
<path d="M14.1002 5.2002C15.0802 7.52686 14.7869 10.2469 13.2202 12.3335" stroke="#1B1C29" stroke-linecap="round" stroke-linejoin="round"/>
<path d="M14.6668 1.3335L1.3335 14.6668" stroke="#1B1C29" stroke-linecap="round" stroke-linejoin="round"/>
</svg>
