<svg width="104" height="46" viewBox="0 0 104 46" fill="none" xmlns="http://www.w3.org/2000/svg">
<circle cx="20.4817" cy="14.8857" r="7.88571" fill="#49D0BF"/>
<path d="M27.0527 26.0569C22.847 22.9026 18.2908 26.0569 16.5384 28.0283L9.30981 40.5146C12.5955 41.8288 20.2548 43.9135 25.7384 41.1717C32.3098 37.886 32.3098 29.9998 27.0527 26.0569Z" fill="#38A592"/>
<path d="M1.42425 30.6562C-0.678603 23.8219 4.05281 21.1569 6.02425 20.7991C7.3385 20.5607 11.5442 19.8791 15.2242 24.0848C19.8242 29.3419 17.8528 33.9419 20.4814 37.2276C22.5842 39.8562 26.1766 40.0753 27.7099 39.8562C26.8337 40.7324 23.7671 42.6162 18.5099 43.1419C11.9385 43.7991 4.05283 39.1991 1.42425 30.6562Z" fill="#49D0BF"/>
<path d="M44.6855 13.3741H47.1511V24H44.6855V22.8872C43.6746 23.8327 42.5872 24.3055 41.4235 24.3055C39.9544 24.3055 38.7398 23.7745 37.7797 22.7127C36.827 21.629 36.3506 20.2762 36.3506 18.6543C36.3506 17.0615 36.827 15.7342 37.7797 14.6723C38.7325 13.6104 39.9253 13.0795 41.3581 13.0795C42.5945 13.0795 43.7037 13.5886 44.6855 14.6068V13.3741ZM38.8598 18.6543C38.8598 19.6725 39.1325 20.5017 39.678 21.1417C40.238 21.789 40.9435 22.1126 41.7945 22.1126C42.7036 22.1126 43.4382 21.7999 43.9982 21.1744C44.5582 20.5271 44.8382 19.7053 44.8382 18.7088C44.8382 17.7124 44.5582 16.8906 43.9982 16.2433C43.4382 15.6105 42.7109 15.2941 41.8163 15.2941C40.9726 15.2941 40.2671 15.6142 39.6998 16.2542C39.1398 16.9015 38.8598 17.7015 38.8598 18.6543ZM48.9088 13.3741H51.3744V14.3559C52.2326 13.505 53.1999 13.0795 54.2764 13.0795C55.5128 13.0795 56.4765 13.4686 57.1674 14.2468C57.7638 14.9087 58.062 15.9887 58.062 17.487V24H55.5964V18.0652C55.5964 17.0179 55.451 16.2942 55.16 15.8942C54.8764 15.4869 54.36 15.2832 53.6109 15.2832C52.7963 15.2832 52.2181 15.5523 51.8763 16.0905C51.5417 16.6215 51.3744 17.5488 51.3744 18.8725V24H48.9088V13.3741ZM59.8307 13.3741H62.2962V14.3559C63.1544 13.505 64.1218 13.0795 65.1982 13.0795C66.4346 13.0795 67.3983 13.4686 68.0892 14.2468C68.6856 14.9087 68.9838 15.9887 68.9838 17.487V24H66.5182V18.0652C66.5182 17.0179 66.3728 16.2942 66.0819 15.8942C65.7982 15.4869 65.2818 15.2832 64.5327 15.2832C63.7181 15.2832 63.1399 15.5523 62.7981 16.0905C62.4635 16.6215 62.2962 17.5488 62.2962 18.8725V24H59.8307V13.3741ZM80.4293 19.2652H72.8144C72.8798 20.138 73.1635 20.8326 73.6653 21.349C74.1672 21.8581 74.8108 22.1126 75.5963 22.1126C76.2073 22.1126 76.7127 21.9672 77.1128 21.6763C77.5055 21.3853 77.9528 20.8471 78.4546 20.0616L80.5275 21.2181C80.2075 21.7635 79.8693 22.2326 79.5129 22.6254C79.1565 23.0109 78.7747 23.3309 78.3674 23.5854C77.9601 23.8327 77.5201 24.0145 77.0473 24.1309C76.5746 24.2473 76.0618 24.3055 75.5091 24.3055C73.9235 24.3055 72.6507 23.7964 71.6907 22.7781C70.7307 21.7526 70.2506 20.3926 70.2506 18.6979C70.2506 17.0179 70.7161 15.6578 71.6471 14.6177C72.5853 13.5922 73.829 13.0795 75.3781 13.0795C76.9418 13.0795 78.1783 13.5777 79.0874 14.5741C79.9893 15.5632 80.4402 16.9342 80.4402 18.687L80.4293 19.2652ZM77.9092 17.2579C77.5673 15.9487 76.7418 15.2941 75.4327 15.2941C75.1345 15.2941 74.8545 15.3414 74.5926 15.436C74.3308 15.5232 74.0908 15.6542 73.8726 15.8287C73.6617 15.996 73.4799 16.1996 73.3271 16.4396C73.1744 16.6797 73.058 16.9524 72.978 17.2579H77.9092ZM84.238 5.57369V24H81.7834V5.57369H84.238ZM95.6835 19.2652H88.0686C88.1341 20.138 88.4177 20.8326 88.9196 21.349C89.4214 21.8581 90.0651 22.1126 90.8506 22.1126C91.4615 22.1126 91.967 21.9672 92.367 21.6763C92.7598 21.3853 93.207 20.8471 93.7089 20.0616L95.7817 21.2181C95.4617 21.7635 95.1235 22.2326 94.7671 22.6254C94.4107 23.0109 94.0289 23.3309 93.6216 23.5854C93.2143 23.8327 92.7743 24.0145 92.3015 24.1309C91.8288 24.2473 91.316 24.3055 90.7633 24.3055C89.1778 24.3055 87.905 23.7964 86.9449 22.7781C85.9849 21.7526 85.5049 20.3926 85.5049 18.6979C85.5049 17.0179 85.9703 15.6578 86.9013 14.6177C87.8395 13.5922 89.0832 13.0795 90.6324 13.0795C92.1961 13.0795 93.4325 13.5777 94.3416 14.5741C95.2435 15.5632 95.6944 16.9342 95.6944 18.687L95.6835 19.2652ZM93.1634 17.2579C92.8216 15.9487 91.9961 15.2941 90.6869 15.2941C90.3887 15.2941 90.1087 15.3414 89.8469 15.436C89.5851 15.5232 89.345 15.6542 89.1269 15.8287C88.9159 15.996 88.7341 16.1996 88.5814 16.4396C88.4286 16.6797 88.3123 16.9524 88.2323 17.2579H93.1634ZM97.0376 13.3741H99.4923V14.3232C99.9432 13.8504 100.343 13.5268 100.692 13.3522C101.049 13.1704 101.471 13.0795 101.958 13.0795C102.605 13.0795 103.282 13.2904 103.987 13.7122L102.863 15.9596C102.398 15.6251 101.943 15.4578 101.5 15.4578C100.161 15.4578 99.4923 16.4687 99.4923 18.4907V24H97.0376V13.3741Z" fill="#404040"/>
<path d="M53.9625 35.4022V39.4318V39.7998H54.6985V39.4318V37.923C55.3609 38.9411 56.2503 39.5483 57.3665 39.7446C57.5751 39.7814 57.7897 39.7998 58.0105 39.7998C59.1881 39.7998 60.1817 39.3275 60.9913 38.383C61.7028 37.5243 62.0585 36.5246 62.0585 35.3838C62.0585 34.0467 61.5985 32.9366 60.6785 32.0534C59.9057 31.3297 59.0164 30.9678 58.0105 30.9678C56.8329 30.9678 55.8393 31.4462 55.0297 32.403C54.9071 32.5502 54.7967 32.6974 54.6985 32.8446V27.2878V26.9198H53.9625V27.2878V35.4022ZM54.6985 35.4022C54.6985 34.2246 55.1033 33.2678 55.9129 32.5318C56.5263 31.9798 57.2255 31.7038 58.0105 31.7038C59.0409 31.7038 59.8873 32.1393 60.5497 33.0102C61.0649 33.7094 61.3225 34.5006 61.3225 35.3838C61.3225 36.5491 60.9177 37.4998 60.1081 38.2358C59.4948 38.7878 58.7956 39.0638 58.0105 39.0638C56.9924 39.0638 56.1521 38.6283 55.4897 37.7574C54.9623 37.0705 54.6985 36.2854 54.6985 35.4022ZM64.2586 27.2878V39.4318V39.7998H64.9946V39.4318V27.2878V26.9198H64.2586V27.2878ZM67.0804 35.3838C67.0804 36.7209 67.5404 37.831 68.4604 38.7142C69.2332 39.4379 70.1226 39.7998 71.1284 39.7998C72.306 39.7998 73.2996 39.3275 74.1092 38.383C74.8207 37.5243 75.1764 36.5246 75.1764 35.3838C75.1764 34.0467 74.7164 32.9366 73.7964 32.0534C73.0236 31.3297 72.1343 30.9678 71.1284 30.9678C69.9508 30.9678 68.9572 31.4401 68.1476 32.3846C67.4362 33.2433 67.0804 34.243 67.0804 35.3838ZM67.8164 35.3838C67.8164 34.2185 68.2212 33.2678 69.0308 32.5318C69.6442 31.9798 70.3434 31.7038 71.1284 31.7038C72.1588 31.7038 73.0052 32.1393 73.6676 33.0102C74.1828 33.7094 74.4404 34.5006 74.4404 35.3838C74.4404 36.5491 74.0356 37.4998 73.226 38.2358C72.6127 38.7878 71.9135 39.0638 71.1284 39.0638C70.098 39.0638 69.2516 38.6283 68.5892 37.7574C68.074 37.0582 67.8164 36.267 67.8164 35.3838ZM76.6398 35.3838C76.6398 36.7209 77.0998 37.831 78.0198 38.7142C78.7926 39.4379 79.6819 39.7998 80.6878 39.7998C81.8654 39.7998 82.859 39.3275 83.6686 38.383C83.7913 38.2235 83.9017 38.0702 83.9998 37.923V39.4318C83.9998 40.1678 83.6809 40.8547 83.043 41.4926C82.3806 42.1427 81.6017 42.4739 80.7062 42.4862H80.3382V43.2222H80.7062C81.9819 43.2099 83.0307 42.6947 83.8526 41.6766C84.4414 40.9406 84.7358 40.1923 84.7358 39.4318L84.7542 31.3542L84.7726 30.9862H83.9998V31.3358V32.8446C83.3374 31.8265 82.4481 31.2193 81.3318 31.023C81.111 30.9862 80.8963 30.9678 80.6878 30.9678C79.5102 30.9678 78.5166 31.4401 77.707 32.3846C76.9955 33.2433 76.6398 34.243 76.6398 35.3838ZM77.3758 35.3838C77.3758 34.2185 77.7806 33.2678 78.5902 32.5318C79.2035 31.9798 79.9027 31.7038 80.6878 31.7038C81.7182 31.7038 82.5646 32.1393 83.227 33.0102C83.7422 33.7094 83.9998 34.5006 83.9998 35.3838C83.9998 36.5491 83.595 37.4998 82.7854 38.2358C82.1721 38.7878 81.4729 39.0638 80.6878 39.0638C79.6574 39.0638 78.811 38.6283 78.1486 37.7574C77.6334 37.0582 77.3758 36.267 77.3758 35.3838Z" fill="#404040"/>
</svg>
