<svg width="105" height="46" viewBox="0 0 105 46" fill="none" xmlns="http://www.w3.org/2000/svg">
<circle cx="20.5332" cy="14.8857" r="7.88571" fill="#49D0BF"/>
<path d="M27.1042 26.0569C22.8985 22.9026 18.3423 26.0569 16.5899 28.0283L9.36133 40.5146C12.647 41.8288 20.3063 43.9135 25.7899 41.1717C32.3613 37.886 32.3613 29.9998 27.1042 26.0569Z" fill="#38A592"/>
<path d="M1.47577 30.6562C-0.62709 23.8219 4.10432 21.1569 6.07577 20.7991C7.39002 20.5607 11.5957 19.8791 15.2757 24.0848C19.8757 29.3419 17.9043 33.9419 20.5329 37.2276C22.6357 39.8562 26.2281 40.0753 27.7614 39.8562C26.8853 40.7324 23.8186 42.6162 18.5614 43.1419C11.99 43.7991 4.10434 39.1991 1.47577 30.6562Z" fill="#49D0BF"/>
<path d="M44.737 13.3741H47.2026V24H44.737V22.8872C43.7261 23.8327 42.6387 24.3055 41.4751 24.3055C40.0059 24.3055 38.7913 23.7745 37.8313 22.7127C36.8785 21.629 36.4021 20.2762 36.4021 18.6543C36.4021 17.0615 36.8785 15.7342 37.8313 14.6723C38.784 13.6104 39.9768 13.0795 41.4096 13.0795C42.646 13.0795 43.7552 13.5886 44.737 14.6068V13.3741ZM38.9113 18.6543C38.9113 19.6725 39.184 20.5017 39.7295 21.1417C40.2895 21.789 40.995 22.1126 41.846 22.1126C42.7551 22.1126 43.4897 21.7999 44.0497 21.1744C44.6098 20.5271 44.8898 19.7053 44.8898 18.7088C44.8898 17.7124 44.6098 16.8906 44.0497 16.2433C43.4897 15.6105 42.7624 15.2941 41.8678 15.2941C41.0241 15.2941 40.3186 15.6142 39.7513 16.2542C39.1913 16.9015 38.9113 17.7015 38.9113 18.6543ZM48.9604 13.3741H51.4259V14.3559C52.2841 13.505 53.2515 13.0795 54.3279 13.0795C55.5643 13.0795 56.528 13.4686 57.2189 14.2468C57.8153 14.9087 58.1135 15.9887 58.1135 17.487V24H55.6479V18.0652C55.6479 17.0179 55.5025 16.2942 55.2116 15.8942C54.9279 15.4869 54.4115 15.2832 53.6624 15.2832C52.8478 15.2832 52.2696 15.5523 51.9278 16.0905C51.5932 16.6215 51.4259 17.5488 51.4259 18.8725V24H48.9604V13.3741ZM59.8822 13.3741H62.3477V14.3559C63.206 13.505 64.1733 13.0795 65.2497 13.0795C66.4861 13.0795 67.4498 13.4686 68.1407 14.2468C68.7371 14.9087 69.0353 15.9887 69.0353 17.487V24H66.5698V18.0652C66.5698 17.0179 66.4243 16.2942 66.1334 15.8942C65.8497 15.4869 65.3333 15.2832 64.5842 15.2832C63.7696 15.2832 63.1914 15.5523 62.8496 16.0905C62.515 16.6215 62.3477 17.5488 62.3477 18.8725V24H59.8822V13.3741ZM80.4808 19.2652H72.8659C72.9314 20.138 73.215 20.8326 73.7168 21.349C74.2187 21.8581 74.8624 22.1126 75.6478 22.1126C76.2588 22.1126 76.7643 21.9672 77.1643 21.6763C77.557 21.3853 78.0043 20.8471 78.5062 20.0616L80.579 21.2181C80.259 21.7635 79.9208 22.2326 79.5644 22.6254C79.208 23.0109 78.8262 23.3309 78.4189 23.5854C78.0116 23.8327 77.5716 24.0145 77.0988 24.1309C76.6261 24.2473 76.1133 24.3055 75.5606 24.3055C73.975 24.3055 72.7023 23.7964 71.7422 22.7781C70.7822 21.7526 70.3021 20.3926 70.3021 18.6979C70.3021 17.0179 70.7676 15.6578 71.6986 14.6177C72.6368 13.5922 73.8805 13.0795 75.4297 13.0795C76.9934 13.0795 78.2298 13.5777 79.1389 14.5741C80.0408 15.5632 80.4917 16.9342 80.4917 18.687L80.4808 19.2652ZM77.9607 17.2579C77.6188 15.9487 76.7934 15.2941 75.4842 15.2941C75.186 15.2941 74.906 15.3414 74.6442 15.436C74.3823 15.5232 74.1423 15.6542 73.9241 15.8287C73.7132 15.996 73.5314 16.1996 73.3786 16.4396C73.2259 16.6797 73.1095 16.9524 73.0295 17.2579H77.9607ZM84.2896 5.57369V24H81.8349V5.57369H84.2896ZM95.735 19.2652H88.1201C88.1856 20.138 88.4692 20.8326 88.9711 21.349C89.4729 21.8581 90.1166 22.1126 90.9021 22.1126C91.513 22.1126 92.0185 21.9672 92.4185 21.6763C92.8113 21.3853 93.2586 20.8471 93.7604 20.0616L95.8332 21.2181C95.5132 21.7635 95.175 22.2326 94.8186 22.6254C94.4623 23.0109 94.0804 23.3309 93.6731 23.5854C93.2658 23.8327 92.8258 24.0145 92.3531 24.1309C91.8803 24.2473 91.3676 24.3055 90.8148 24.3055C89.2293 24.3055 87.9565 23.7964 86.9964 22.7781C86.0364 21.7526 85.5564 20.3926 85.5564 18.6979C85.5564 17.0179 86.0219 15.6578 86.9528 14.6177C87.891 13.5922 89.1347 13.0795 90.6839 13.0795C92.2476 13.0795 93.484 13.5777 94.3932 14.5741C95.295 15.5632 95.7459 16.9342 95.7459 18.687L95.735 19.2652ZM93.2149 17.2579C92.8731 15.9487 92.0476 15.2941 90.7384 15.2941C90.4402 15.2941 90.1602 15.3414 89.8984 15.436C89.6366 15.5232 89.3966 15.6542 89.1784 15.8287C88.9674 15.996 88.7856 16.1996 88.6329 16.4396C88.4802 16.6797 88.3638 16.9524 88.2838 17.2579H93.2149ZM97.0891 13.3741H99.5438V14.3232C99.9947 13.8504 100.395 13.5268 100.744 13.3522C101.1 13.1704 101.522 13.0795 102.009 13.0795C102.657 13.0795 103.333 13.2904 104.039 13.7122L102.915 15.9596C102.449 15.6251 101.995 15.4578 101.551 15.4578C100.213 15.4578 99.5438 16.4687 99.5438 18.4907V24H97.0891V13.3741Z" fill="#404040"/>
<path d="M48.0136 33.3414C48.0136 32.6054 47.6394 31.9982 46.8912 31.5198C46.3146 31.1518 45.6522 30.9678 44.904 30.9678C43.8122 30.9678 42.9536 31.3174 42.328 32.0166C41.9722 32.4214 41.7944 32.863 41.7944 33.3414C41.7944 34.1387 42.3893 34.7827 43.5792 35.2734C43.6773 35.3225 44.3888 35.5678 45.7136 36.0094C46.7808 36.3651 47.388 36.7393 47.5352 37.1318C47.572 37.2299 47.5904 37.3281 47.5904 37.4262C47.5904 38.0027 47.204 38.4505 46.4312 38.7694C45.965 38.9657 45.456 39.0638 44.904 39.0638C43.9226 39.0638 43.1682 38.8185 42.6408 38.3278C42.3709 38.0457 42.2298 37.7451 42.2176 37.4262H41.4816C41.4816 38.1377 41.868 38.7326 42.6408 39.211C43.2909 39.6035 44.0453 39.7998 44.904 39.7998C46.1306 39.7998 47.0813 39.4441 47.756 38.7326C48.1362 38.3278 48.3264 37.8923 48.3264 37.4262C48.3264 36.6411 47.7376 36.0033 46.56 35.5126C46.4618 35.4635 45.7504 35.2182 44.4256 34.7766C43.3461 34.4086 42.7328 34.0283 42.5856 33.6358C42.5488 33.5377 42.5304 33.4395 42.5304 33.3414C42.5304 32.7649 42.88 32.311 43.5792 31.9798C43.984 31.7958 44.4256 31.7038 44.904 31.7038C45.7626 31.7038 46.4312 31.9553 46.9096 32.4582C47.1549 32.7281 47.2776 33.0225 47.2776 33.3414H48.0136ZM49.8011 35.3838C49.8011 36.7209 50.2611 37.831 51.1811 38.7142C51.9539 39.4379 52.8432 39.7998 53.8491 39.7998C55.0267 39.7998 56.0203 39.3275 56.8299 38.383C57.5414 37.5243 57.8971 36.5246 57.8971 35.3838C57.8971 34.0467 57.4371 32.9366 56.5171 32.0534C55.7443 31.3297 54.855 30.9678 53.8491 30.9678C52.6715 30.9678 51.6779 31.4401 50.8683 32.3846C50.1568 33.2433 49.8011 34.243 49.8011 35.3838ZM50.5371 35.3838C50.5371 34.2185 50.9419 33.2678 51.7515 32.5318C52.3648 31.9798 53.064 31.7038 53.8491 31.7038C54.8795 31.7038 55.7259 32.1393 56.3883 33.0102C56.9035 33.7094 57.1611 34.5006 57.1611 35.3838C57.1611 36.5491 56.7563 37.4998 55.9467 38.2358C55.3334 38.7878 54.6342 39.0638 53.8491 39.0638C52.8187 39.0638 51.9723 38.6283 51.3099 37.7574C50.7947 37.0582 50.5371 36.267 50.5371 35.3838ZM60.8325 32.6422V31.3358V30.9678H60.0965V31.3358V35.2182C60.0965 35.2427 60.0965 35.2979 60.0965 35.3838V35.7518V39.4318V39.7998H60.8325V39.4318V35.7518V35.3838V35.2182C60.857 33.7585 61.4029 32.7342 62.4701 32.1454C63.0098 31.851 63.617 31.7038 64.2917 31.7038H64.6597V30.9678H64.2917C62.7829 30.9678 61.6482 31.5014 60.8877 32.5686C60.8631 32.6054 60.8447 32.6299 60.8325 32.6422ZM65.9457 31.3358V36.5246C65.9457 37.5182 66.3627 38.3462 67.1969 39.0086C67.8715 39.5361 68.6443 39.7998 69.5153 39.7998C70.6561 39.7998 71.5822 39.3889 72.2937 38.567C72.8089 37.9659 73.0665 37.2851 73.0665 36.5246L73.0849 31.3542L73.1033 30.9862H72.3489L72.3305 31.3358V36.5246C72.3305 37.371 71.9563 38.0457 71.2081 38.5486C70.7051 38.8921 70.1409 39.0638 69.5153 39.0638C68.5707 39.0638 67.8102 38.7203 67.2337 38.0334C66.8657 37.5795 66.6817 37.0766 66.6817 36.5246L66.7001 31.3542L66.7185 30.9862H65.9641L65.9457 31.3358ZM78.0498 38.4014L75.253 31.207L75.161 30.9678H74.3698L74.5538 31.4646L77.645 39.4318C77.1053 40.8547 76.5962 41.7502 76.1178 42.1182C75.7866 42.3635 75.3818 42.4862 74.9034 42.4862H74.5354V43.2222H74.9034C75.7744 43.2222 76.4613 42.9278 76.9642 42.339C77.4304 41.787 77.9088 40.8609 78.3994 39.5606L81.509 31.4646L81.693 30.9678H80.9018L80.8098 31.207L78.0498 38.4014ZM83.0073 35.3838C83.0073 36.7209 83.4673 37.831 84.3873 38.7142C85.1601 39.4379 86.0495 39.7998 87.0553 39.7998C88.2329 39.7998 89.2265 39.3275 90.0361 38.383C90.7476 37.5243 91.1033 36.5246 91.1033 35.3838C91.1033 34.0467 90.6433 32.9366 89.7233 32.0534C88.9505 31.3297 88.0612 30.9678 87.0553 30.9678C85.8777 30.9678 84.8841 31.4401 84.0745 32.3846C83.3631 33.2433 83.0073 34.243 83.0073 35.3838ZM83.7433 35.3838C83.7433 34.2185 84.1481 33.2678 84.9577 32.5318C85.5711 31.9798 86.2703 31.7038 87.0553 31.7038C88.0857 31.7038 88.9321 32.1393 89.5945 33.0102C90.1097 33.7094 90.3673 34.5006 90.3673 35.3838C90.3673 36.5491 89.9625 37.4998 89.1529 38.2358C88.5396 38.7878 87.8404 39.0638 87.0553 39.0638C86.0249 39.0638 85.1785 38.6283 84.5161 37.7574C84.0009 37.0582 83.7433 36.267 83.7433 35.3838ZM94.0387 32.6422V31.3358V30.9678H93.3027V31.3358V35.2182C93.3027 35.2427 93.3027 35.2979 93.3027 35.3838V35.7518V39.4318V39.7998H94.0387V39.4318V35.7518V35.3838V35.2182C94.0632 33.7585 94.6091 32.7342 95.6763 32.1454C96.216 31.851 96.8232 31.7038 97.4979 31.7038H97.8659V30.9678H97.4979C95.9891 30.9678 94.8544 31.5014 94.0939 32.5686C94.0694 32.6054 94.051 32.6299 94.0387 32.6422Z" fill="#404040"/>
</svg>
