<svg width="104" height="46" viewBox="0 0 104 46" fill="none" xmlns="http://www.w3.org/2000/svg">
<circle cx="19.5849" cy="14.8857" r="7.88571" fill="#49D0BF"/>
<path d="M26.1559 26.0569C21.9502 22.9026 17.394 26.0569 15.6417 28.0283L8.41309 40.5146C11.6988 41.8288 19.3581 43.9135 24.8417 41.1717C31.4131 37.886 31.4131 29.9998 26.1559 26.0569Z" fill="#38A592"/>
<path d="M0.527525 30.6562C-1.57533 23.8219 3.15608 21.1569 5.12753 20.7991C6.44178 20.5607 10.6475 19.8791 14.3275 24.0848C18.9275 29.3419 16.9561 33.9419 19.5846 37.2276C21.6875 39.8562 25.2799 40.0753 26.8132 39.8562C25.937 40.7324 22.8703 42.6162 17.6132 43.1419C11.0418 43.7991 3.1561 39.1991 0.527525 30.6562Z" fill="#49D0BF"/>
<path d="M43.7888 13.3741H46.2544V24H43.7888V22.8872C42.7778 23.8327 41.6905 24.3055 40.5268 24.3055C39.0577 24.3055 37.8431 23.7745 36.883 22.7127C35.9302 21.629 35.4539 20.2762 35.4539 18.6543C35.4539 17.0615 35.9302 15.7342 36.883 14.6723C37.8358 13.6104 39.0286 13.0795 40.4614 13.0795C41.6978 13.0795 42.8069 13.5886 43.7888 14.6068V13.3741ZM37.9631 18.6543C37.9631 19.6725 38.2358 20.5017 38.7813 21.1417C39.3413 21.789 40.0468 22.1126 40.8977 22.1126C41.8069 22.1126 42.5415 21.7999 43.1015 21.1744C43.6615 20.5271 43.9415 19.7053 43.9415 18.7088C43.9415 17.7124 43.6615 16.8906 43.1015 16.2433C42.5415 15.6105 41.8141 15.2941 40.9196 15.2941C40.0759 15.2941 39.3704 15.6142 38.8031 16.2542C38.2431 16.9015 37.9631 17.7015 37.9631 18.6543ZM48.0121 13.3741H50.4777V14.3559C51.3359 13.505 52.3032 13.0795 53.3796 13.0795C54.6161 13.0795 55.5797 13.4686 56.2707 14.2468C56.8671 14.9087 57.1653 15.9887 57.1653 17.487V24H54.6997V18.0652C54.6997 17.0179 54.5542 16.2942 54.2633 15.8942C53.9797 15.4869 53.4633 15.2832 52.7141 15.2832C51.8996 15.2832 51.3214 15.5523 50.9795 16.0905C50.645 16.6215 50.4777 17.5488 50.4777 18.8725V24H48.0121V13.3741ZM58.9339 13.3741H61.3995V14.3559C62.2577 13.505 63.225 13.0795 64.3015 13.0795C65.5379 13.0795 66.5016 13.4686 67.1925 14.2468C67.7889 14.9087 68.0871 15.9887 68.0871 17.487V24H65.6215V18.0652C65.6215 17.0179 65.4761 16.2942 65.1851 15.8942C64.9015 15.4869 64.3851 15.2832 63.636 15.2832C62.8214 15.2832 62.2432 15.5523 61.9013 16.0905C61.5668 16.6215 61.3995 17.5488 61.3995 18.8725V24H58.9339V13.3741ZM79.5326 19.2652H71.9177C71.9831 20.138 72.2668 20.8326 72.7686 21.349C73.2704 21.8581 73.9141 22.1126 74.6996 22.1126C75.3105 22.1126 75.816 21.9672 76.216 21.6763C76.6088 21.3853 77.0561 20.8471 77.5579 20.0616L79.6307 21.2181C79.3107 21.7635 78.9725 22.2326 78.6162 22.6254C78.2598 23.0109 77.8779 23.3309 77.4706 23.5854C77.0634 23.8327 76.6233 24.0145 76.1506 24.1309C75.6778 24.2473 75.1651 24.3055 74.6123 24.3055C73.0268 24.3055 71.754 23.7964 70.794 22.7781C69.8339 21.7526 69.3539 20.3926 69.3539 18.6979C69.3539 17.0179 69.8194 15.6578 70.7503 14.6177C71.6886 13.5922 72.9322 13.0795 74.4814 13.0795C76.0451 13.0795 77.2815 13.5777 78.1907 14.5741C79.0925 15.5632 79.5435 16.9342 79.5435 18.687L79.5326 19.2652ZM77.0124 17.2579C76.6706 15.9487 75.8451 15.2941 74.536 15.2941C74.2378 15.2941 73.9578 15.3414 73.6959 15.436C73.4341 15.5232 73.1941 15.6542 72.9759 15.8287C72.765 15.996 72.5831 16.1996 72.4304 16.4396C72.2777 16.6797 72.1613 16.9524 72.0813 17.2579H77.0124ZM83.3413 5.57369V24H80.8867V5.57369H83.3413ZM94.7868 19.2652H87.1719C87.2374 20.138 87.521 20.8326 88.0228 21.349C88.5247 21.8581 89.1684 22.1126 89.9538 22.1126C90.5648 22.1126 91.0703 21.9672 91.4703 21.6763C91.863 21.3853 92.3103 20.8471 92.8122 20.0616L94.885 21.2181C94.565 21.7635 94.2268 22.2326 93.8704 22.6254C93.514 23.0109 93.1322 23.3309 92.7249 23.5854C92.3176 23.8327 91.8776 24.0145 91.4048 24.1309C90.9321 24.2473 90.4193 24.3055 89.8666 24.3055C88.281 24.3055 87.0083 23.7964 86.0482 22.7781C85.0882 21.7526 84.6081 20.3926 84.6081 18.6979C84.6081 17.0179 85.0736 15.6578 86.0046 14.6177C86.9428 13.5922 88.1865 13.0795 89.7357 13.0795C91.2994 13.0795 92.5358 13.5777 93.4449 14.5741C94.3468 15.5632 94.7977 16.9342 94.7977 18.687L94.7868 19.2652ZM92.2667 17.2579C91.9248 15.9487 91.0994 15.2941 89.7902 15.2941C89.492 15.2941 89.212 15.3414 88.9502 15.436C88.6883 15.5232 88.4483 15.6542 88.2301 15.8287C88.0192 15.996 87.8374 16.1996 87.6846 16.4396C87.5319 16.6797 87.4155 16.9524 87.3355 17.2579H92.2667ZM96.1409 13.3741H98.5956V14.3232C99.0465 13.8504 99.4465 13.5268 99.7956 13.3522C100.152 13.1704 100.574 13.0795 101.061 13.0795C101.708 13.0795 102.385 13.2904 103.09 13.7122L101.967 15.9596C101.501 15.6251 101.047 15.4578 100.603 15.4578C99.2647 15.4578 98.5956 16.4687 98.5956 18.4907V24H96.1409V13.3741Z" fill="#404040"/>
<path d="M43.2444 33.3414C43.2444 32.6054 42.8703 31.9982 42.122 31.5198C41.5455 31.1518 40.8831 30.9678 40.1348 30.9678C39.0431 30.9678 38.1844 31.3174 37.5588 32.0166C37.2031 32.4214 37.0252 32.863 37.0252 33.3414C37.0252 34.1387 37.6202 34.7827 38.81 35.2734C38.9082 35.3225 39.6196 35.5678 40.9444 36.0094C42.0116 36.3651 42.6188 36.7393 42.766 37.1318C42.8028 37.2299 42.8212 37.3281 42.8212 37.4262C42.8212 38.0027 42.4348 38.4505 41.662 38.7694C41.1959 38.9657 40.6868 39.0638 40.1348 39.0638C39.1535 39.0638 38.3991 38.8185 37.8716 38.3278C37.6018 38.0457 37.4607 37.7451 37.4484 37.4262H36.7124C36.7124 38.1377 37.0988 38.7326 37.8716 39.211C38.5218 39.6035 39.2762 39.7998 40.1348 39.7998C41.3615 39.7998 42.3122 39.4441 42.9868 38.7326C43.3671 38.3278 43.5572 37.8923 43.5572 37.4262C43.5572 36.6411 42.9684 36.0033 41.7908 35.5126C41.6927 35.4635 40.9812 35.2182 39.6564 34.7766C38.577 34.4086 37.9636 34.0283 37.8164 33.6358C37.7796 33.5377 37.7612 33.4395 37.7612 33.3414C37.7612 32.7649 38.1108 32.311 38.81 31.9798C39.2148 31.7958 39.6564 31.7038 40.1348 31.7038C40.9935 31.7038 41.662 31.9553 42.1404 32.4582C42.3858 32.7281 42.5084 33.0225 42.5084 33.3414H43.2444ZM47.24 35.3838C47.24 36.7209 47.7 37.831 48.62 38.7142C49.3928 39.4379 50.2821 39.7998 51.288 39.7998C52.4656 39.7998 53.4592 39.3275 54.2688 38.383C54.3914 38.2235 54.5018 38.0702 54.6 37.923V39.4318V39.7998H55.336V39.4318V35.3838V31.3358V30.9678H54.6V31.3358V32.8446C53.9376 31.8265 53.0482 31.2193 51.932 31.023C51.7112 30.9862 51.4965 30.9678 51.288 30.9678C50.1104 30.9678 49.1168 31.4401 48.3072 32.3846C47.5957 33.2433 47.24 34.243 47.24 35.3838ZM47.976 35.3838C47.976 34.2185 48.3808 33.2678 49.1904 32.5318C49.8037 31.9798 50.5029 31.7038 51.288 31.7038C52.3184 31.7038 53.1648 32.1393 53.8272 33.0102C54.3424 33.7094 54.6 34.5006 54.6 35.3838C54.6 36.5491 54.1952 37.4998 53.3856 38.2358C52.7722 38.7878 52.073 39.0638 51.288 39.0638C50.2576 39.0638 49.4112 38.6283 48.7488 37.7574C48.2336 37.0582 47.976 36.267 47.976 35.3838ZM61.6025 31.7038H63.7921H64.1601V30.9678H63.7921H61.6025V29.0358V28.6678H60.8665V29.0358V30.9678H59.7441H59.3761V31.7038H59.7441H60.8665V37.3894C60.8787 38.8123 61.6577 39.6035 63.2033 39.763C63.3995 39.7875 63.5958 39.7998 63.7921 39.7998H64.1601V39.0638H63.7921C62.4305 39.0638 61.7006 38.5609 61.6025 37.555C61.6025 37.4937 61.6025 37.4385 61.6025 37.3894V31.7038ZM69.0325 39.4318V31.3358V30.9678H68.2965V31.3358V39.4318V39.7998H69.0325V39.4318ZM76.5065 38.4014L73.7097 31.207L73.6177 30.9678H72.8265L73.0105 31.4646L76.1017 39.4318C75.5619 40.8547 75.0529 41.7502 74.5745 42.1182C74.2433 42.3635 73.8385 42.4862 73.3601 42.4862H72.9921V43.2222H73.3601C74.231 43.2222 74.9179 42.9278 75.4209 42.339C75.887 41.787 76.3654 40.8609 76.8561 39.5606L79.9657 31.4646L80.1497 30.9678H79.3585L79.2665 31.207L76.5065 38.4014ZM83.672 35.3838C83.672 36.7209 84.132 37.831 85.052 38.7142C85.8248 39.4379 86.7141 39.7998 87.72 39.7998C88.8976 39.7998 89.8912 39.3275 90.7008 38.383C91.4122 37.5243 91.768 36.5246 91.768 35.3838C91.768 34.0467 91.308 32.9366 90.388 32.0534C89.6152 31.3297 88.7258 30.9678 87.72 30.9678C86.5424 30.9678 85.5488 31.4401 84.7392 32.3846C84.0277 33.2433 83.672 34.243 83.672 35.3838ZM84.408 35.3838C84.408 34.2185 84.8128 33.2678 85.6224 32.5318C86.2357 31.9798 86.9349 31.7038 87.72 31.7038C88.7504 31.7038 89.5968 32.1393 90.2592 33.0102C90.7744 33.7094 91.032 34.5006 91.032 35.3838C91.032 36.5491 90.6272 37.4998 89.8176 38.2358C89.2042 38.7878 88.505 39.0638 87.72 39.0638C86.6896 39.0638 85.8432 38.6283 85.1808 37.7574C84.6656 37.0582 84.408 36.267 84.408 35.3838ZM96.9113 32.6422V31.3358V30.9678H96.1753V31.3358V35.2182C96.1753 35.2427 96.1753 35.2979 96.1753 35.3838V35.7518V39.4318V39.7998H96.9113V39.4318V35.7518V35.3838V35.2182C96.9359 33.7585 97.4817 32.7342 98.5489 32.1454C99.0887 31.851 99.6959 31.7038 100.371 31.7038H100.739V30.9678H100.371C98.8617 30.9678 97.7271 31.5014 96.9665 32.5686C96.942 32.6054 96.9236 32.6299 96.9113 32.6422Z" fill="#404040"/>
</svg>
